<?xml version="1.0" encoding="UTF-8"?>
<svg version="1.1" xmlns="http://www.w3.org/2000/svg" xmlns:xlink="http://www.w3.org/1999/xlink">
<defs>

</defs>
<symbol id="i-arrow" viewBox="0 0 5 7" fill="none" xmlns="http://www.w3.org/2000/svg"><path d="M3.086 3.5L.611 1.025l.707-.707L4.5 3.5 1.318 6.682l-.707-.707L3.086 3.5z" fill="currentColor"/></symbol>
<symbol id="i-close" xmlns="http://www.w3.org/2000/svg" viewBox="0 0 16 16"><path fill="currentColor" d="M8 6.22L14.22 0 16 1.78 9.78 8 16 14.22 14.22 16 8 9.78 1.78 16 0 14.22 6.22 8 0 1.78 1.78 0z"/></symbol>
<symbol id="i-drop" xmlns="http://www.w3.org/2000/svg" viewBox="0 0 12.09 12.09"><path fill="none" stroke="currentColor" d="M1.05 3.55l5 5 5-5" stroke-width="2" stroke-linecap="round" stroke-linejoin="round"/></symbol>
<symbol id="i-refresh" xmlns="http://www.w3.org/2000/svg" fill="none" viewBox="0 0 24 24" stroke-width="2" stroke="currentColor"><path stroke-linecap="round" stroke-linejoin="round" d="M16.023 9.348h4.992v-.001M2.985 19.644v-4.992m0 0h4.992m-4.993 0l3.181 3.183a8.25 8.25 0 0013.803-3.7M4.031 9.865a8.25 8.25 0 0113.803-3.7l3.181 3.182m0-4.991v4.99"/></symbol>
</svg>